<?xml version="1.0" encoding="UTF-8" ?>
<!DOCTYPE svg PUBLIC "-//W3C//DTD SVG 1.1//EN" "http://www.w3.org/Graphics/SVG/1.1/DTD/svg11.dtd">
<svg width="1072pt" height="992pt" viewBox="0 0 1072 992" version="1.1" xmlns="http://www.w3.org/2000/svg">
<g id="#283c30ff">
<path fill="#283c30" opacity="1.00" d=" M 632.71 589.68 C 660.92 579.52 688.82 568.51 717.10 558.54 C 714.87 588.30 711.57 617.97 708.37 647.64 C 700.85 640.03 694.01 631.82 687.25 623.55 C 657.38 665.96 609.41 695.94 557.56 701.46 C 505.75 708.64 451.66 690.88 412.84 656.16 C 403.78 647.57 394.46 639.07 387.12 628.90 C 379.59 620.88 384.15 605.32 395.01 603.02 C 400.87 600.33 407.28 603.28 411.55 607.40 C 416.36 612.64 420.43 618.51 425.31 623.69 C 464.48 664.37 527.38 681.98 581.31 663.48 C 613.72 653.39 641.65 631.53 661.43 604.17 C 651.70 599.65 642.28 594.51 632.71 589.68 Z" />
</g>
<g id="#7bbc74ff">
<path fill="#7bbc74" opacity="1.00" d=" M 497.13 167.19 C 508.10 160.12 522.44 160.22 534.41 164.50 C 545.60 168.68 553.36 178.23 562.16 185.85 C 666.19 280.81 770.22 375.78 874.17 470.84 C 880.38 476.67 888.06 483.56 886.80 493.03 C 887.64 502.56 881.78 512.27 873.05 516.10 C 866.73 519.83 858.98 518.66 852.01 518.97 C 840.66 518.58 829.34 519.80 818.01 519.40 C 817.85 562.02 818.43 604.63 818.36 647.25 C 818.93 669.25 817.83 691.26 818.54 713.25 C 818.41 729.15 819.47 745.59 813.67 760.74 C 804.74 789.80 780.89 813.62 751.91 822.75 C 736.82 827.71 720.72 827.89 705.00 828.04 C 591.67 827.97 478.33 827.98 364.99 828.03 C 347.68 828.18 329.85 826.43 314.02 818.95 C 281.04 804.43 257.43 770.31 257.31 733.98 C 256.44 662.42 257.46 590.84 256.83 519.27 C 241.55 518.92 226.27 519.42 211.00 518.75 C 196.94 517.49 184.40 507.43 179.80 494.14 C 175.98 482.84 175.95 469.57 182.21 459.14 C 185.84 452.37 191.76 447.43 197.31 442.32 C 222.85 419.14 247.81 395.28 273.85 372.67 C 274.31 332.77 273.69 292.86 274.08 252.96 C 273.56 241.24 279.66 229.67 290.01 224.01 C 296.71 219.19 305.23 220.22 312.99 219.92 C 327.99 219.90 343.00 219.66 358.00 220.20 C 369.10 219.82 378.75 227.50 384.56 236.40 C 389.16 244.87 388.35 255.01 389.31 264.29 C 417.43 239.48 444.50 213.49 472.37 188.39 C 480.63 181.33 487.45 172.47 497.13 167.19 M 632.71 589.68 C 642.28 594.51 651.70 599.65 661.43 604.17 C 641.65 631.53 613.72 653.39 581.31 663.48 C 527.38 681.98 464.48 664.37 425.31 623.69 C 420.43 618.51 416.36 612.64 411.55 607.40 C 407.28 603.28 400.87 600.33 395.01 603.02 C 384.15 605.32 379.59 620.88 387.12 628.90 C 394.46 639.07 403.78 647.57 412.84 656.16 C 451.66 690.88 505.75 708.64 557.56 701.46 C 609.41 695.94 657.38 665.96 687.25 623.55 C 694.01 631.82 700.85 640.03 708.37 647.64 C 711.57 617.97 714.87 588.30 717.10 558.54 C 688.82 568.51 660.92 579.52 632.71 589.68 Z" />
</g>
</svg>
